<?xml version="1.0" standalone="no"?><!-- Generator: Gravit.io --><svg xmlns="http://www.w3.org/2000/svg" xmlns:xlink="http://www.w3.org/1999/xlink" style="isolation:isolate" viewBox="656.917 378.833 346.167 346.167" width="346.167" height="346.167"><defs><clipPath id="_clipPath_B7dLxQnY5FODgq1hZUOFRiMnhGpafsBA"><rect x="656.917" y="378.833" width="346.167" height="346.167"/></clipPath></defs><g clip-path="url(#_clipPath_B7dLxQnY5FODgq1hZUOFRiMnhGpafsBA)"><circle vector-effect="non-scaling-stroke" cx="830" cy="551.9166666666665" r="173.08333333333348" fill="rgb(51,51,51)"/><path d=" M 750 462.728 L 750 657.272 C 750 664.297 755.703 670 762.728 670 L 897.272 670 C 904.297 670 910 664.297 910 657.272 L 910 462.728 C 910 455.703 904.297 450 897.272 450 L 762.728 450 C 755.703 450 750 455.703 750 462.728 Z " fill="rgb(183,183,183)"/><path d=" M 750 461.724 L 750 638.276 C 750 644.747 755.253 650 761.724 650 L 898.276 650 C 904.747 650 910 644.747 910 638.276 L 910 461.724 C 910 455.253 904.747 450 898.276 450 L 761.724 450 C 755.253 450 750 455.253 750 461.724 Z " fill="rgb(255,255,255)"/><circle vector-effect="non-scaling-stroke" cx="770" cy="470" r="10" fill="rgb(53,53,53)"/><circle vector-effect="non-scaling-stroke" cx="810" cy="470" r="10" fill="rgb(53,53,53)"/><circle vector-effect="non-scaling-stroke" cx="850" cy="470" r="10" fill="rgb(53,53,53)"/><circle vector-effect="non-scaling-stroke" cx="890" cy="470" r="10" fill="rgb(53,53,53)"/><path d=" M 763 441 L 763 463 C 763 467.967 766.137 472 770 472 L 770 472 C 773.863 472 777 467.967 777 463 L 777 441 C 777 436.033 773.863 432 770 432 L 770 432 C 766.137 432 763 436.033 763 441 Z " fill="rgb(159,149,149)"/><path d=" M 803 441 L 803 463 C 803 467.967 806.137 472 810 472 L 810 472 C 813.863 472 817 467.967 817 463 L 817 441 C 817 436.033 813.863 432 810 432 L 810 432 C 806.137 432 803 436.033 803 441 Z " fill="rgb(159,149,149)"/><path d=" M 843 441 L 843 463 C 843 467.967 846.137 472 850 472 L 850 472 C 853.863 472 857 467.967 857 463 L 857 441 C 857 436.033 853.863 432 850 432 L 850 432 C 846.137 432 843 436.033 843 441 Z " fill="rgb(159,149,149)"/><path d=" M 883 441 L 883 463 C 883 467.967 886.137 472 890 472 L 890 472 C 893.863 472 897 467.967 897 463 L 897 441 C 897 436.033 893.863 432 890 432 L 890 432 C 886.137 432 883 436.033 883 441 Z " fill="rgb(159,149,149)"/><path d=" M 941.365 458.393 L 945.607 462.635 C 948.339 465.367 948.339 469.803 945.607 472.535 L 870.654 547.488 C 867.922 550.22 862.728 553.43 859.063 554.652 L 851.132 557.295 C 847.467 558.517 845.483 556.533 846.705 552.868 L 849.348 544.937 C 850.57 541.272 853.78 536.078 856.512 533.346 L 931.465 458.393 C 934.197 455.661 938.633 455.661 941.365 458.393 Z " fill="rgb(159,159,159)"/><path d=" M 714.979 511.393 L 710.737 515.635 C 708.005 518.367 708.005 522.803 710.737 525.535 L 785.69 600.488 C 788.422 603.22 793.615 606.43 797.281 607.652 L 805.212 610.295 C 808.877 611.517 810.861 609.533 809.639 605.868 L 806.996 597.937 C 805.774 594.272 802.564 589.078 799.832 586.346 L 724.879 511.393 C 722.147 508.661 717.711 508.661 714.979 511.393 Z " fill="rgb(159,159,159)"/></g></svg>