<?xml version="1.0" standalone="no"?>
<!DOCTYPE svg PUBLIC "-//W3C//DTD SVG 20010904//EN"
 "http://www.w3.org/TR/2001/REC-SVG-20010904/DTD/svg10.dtd">
<svg version="1.0" xmlns="http://www.w3.org/2000/svg"
 width="700.000000pt" height="700.000000pt" viewBox="0 0 700.000000 700.000000"
 preserveAspectRatio="xMidYMid meet">
<metadata>
Created by potrace 1.11, written by Peter Selinger 2001-2013
</metadata>
<g transform="translate(0.000000,700.000000) scale(0.100000,-0.100000)"
fill="#000000" stroke="none">
<path d="M3270 6989 c-604 -38 -1209 -243 -1713 -581 -1184 -794 -1766 -2213
-1482 -3613 276 -1361 1359 -2444 2720 -2720 754 -153 1526 -59 2211 270 1455
697 2240 2277 1919 3860 -276 1361 -1359 2444 -2720 2720 -314 64 -614 84
-935 64z m-910 -1095 c53 -45 63 -77 68 -211 l4 -123 258 0 257 0 6 119 c6
131 19 174 69 216 22 19 41 25 75 25 39 0 51 -5 83 -37 45 -46 60 -103 60
-233 l0 -90 260 0 260 0 0 90 c0 130 15 187 60 233 32 32 44 37 83 37 34 0 53
-6 75 -25 50 -42 63 -85 69 -216 l6 -119 257 0 258 0 4 123 c5 134 15 166 68
211 40 33 105 36 144 5 49 -39 60 -74 66 -209 l5 -125 50 -6 c63 -8 104 -28
149 -75 58 -59 66 -101 66 -328 l0 -201 228 227 c125 124 237 231 249 237 56
28 114 10 190 -61 88 -84 110 -145 77 -211 -9 -18 -180 -196 -380 -397 l-364
-365 -2 -1540 -3 -1540 -24 -47 c-29 -57 -61 -88 -121 -120 l-45 -23 -1425 0
-1425 0 -45 23 c-60 32 -92 63 -121 120 l-24 47 -3 970 -2 970 -404 405 c-222
223 -409 415 -415 427 -15 30 -14 89 3 121 24 46 138 149 175 157 80 17 87 12
374 -273 l267 -266 0 770 c0 855 -2 828 66 898 45 47 86 67 149 75 l50 6 5
125 c6 135 17 170 66 209 39 31 104 28 144 -5z"/>
<path d="M4850 5275 c-1 -48 -35 -113 -72 -135 -88 -53 -176 1 -203 125 l-7
30 -18 -25 c-11 -14 -24 -45 -29 -70 -32 -146 91 -264 244 -236 43 8 113 68
132 113 26 63 13 153 -31 208 -15 19 -15 19 -16 -10z"/>
<path d="M2111 5247 c-24 -50 -27 -122 -8 -170 19 -45 89 -105 132 -113 153
-28 276 90 244 236 -5 25 -18 56 -29 70 l-18 25 -7 -30 c-13 -57 -28 -85 -62
-115 -41 -36 -92 -40 -141 -10 -34 21 -71 87 -72 128 0 35 -16 26 -39 -21z"/>
<path d="M2918 5244 c-41 -93 -12 -198 70 -255 52 -35 143 -38 202 -7 93 50
130 171 80 267 -24 49 -35 47 -44 -8 -4 -27 -18 -53 -45 -81 -32 -33 -44 -40
-77 -40 -21 0 -53 9 -71 20 -36 21 -73 85 -73 125 0 39 -19 30 -42 -21z"/>
<path d="M3730 5249 c-50 -96 -13 -217 80 -267 59 -31 150 -28 202 7 82 57
111 162 70 255 -23 51 -42 60 -42 21 0 -40 -37 -104 -73 -125 -18 -11 -50 -20
-71 -20 -33 0 -45 7 -77 40 -27 28 -41 54 -45 81 -9 55 -20 57 -44 8z"/>
</g>
</svg>
